<mxfile host="app.diagrams.net" agent="Mozilla/5.0 (Windows NT 10.0; Win64; x64) AppleWebKit/537.36 (KHTML, like Gecko) Chrome/140.0.0.0 Safari/537.36" version="28.2.7" pages="2">
  <diagram id="C5RBs43oDa-KdzZeNtuy" name="Page-1">
    <mxGraphModel grid="1" page="1" gridSize="10" guides="1" tooltips="1" connect="1" arrows="1" fold="1" pageScale="1" pageWidth="827" pageHeight="1169" math="0" shadow="0">
      <root>
        <mxCell id="WIyWlLk6GJQsqaUBKTNV-0" />
        <mxCell id="WIyWlLk6GJQsqaUBKTNV-1" parent="WIyWlLk6GJQsqaUBKTNV-0" />
        <mxCell id="WIyWlLk6GJQsqaUBKTNV-2" value="" style="rounded=0;html=1;jettySize=auto;orthogonalLoop=1;fontSize=11;endArrow=block;endFill=0;endSize=8;strokeWidth=1;shadow=0;labelBackgroundColor=none;edgeStyle=orthogonalEdgeStyle;" edge="1" parent="WIyWlLk6GJQsqaUBKTNV-1" source="WIyWlLk6GJQsqaUBKTNV-3" target="WIyWlLk6GJQsqaUBKTNV-6">
          <mxGeometry relative="1" as="geometry" />
        </mxCell>
        <mxCell id="WIyWlLk6GJQsqaUBKTNV-3" value="¡Corre Gijonido!" style="rounded=1;whiteSpace=wrap;html=1;fontSize=12;glass=0;strokeWidth=1;shadow=0;" vertex="1" parent="WIyWlLk6GJQsqaUBKTNV-1">
          <mxGeometry x="160" y="80" width="120" height="40" as="geometry" />
        </mxCell>
        <mxCell id="WIyWlLk6GJQsqaUBKTNV-4" value="si" style="rounded=0;html=1;jettySize=auto;orthogonalLoop=1;fontSize=11;endArrow=block;endFill=0;endSize=8;strokeWidth=1;shadow=0;labelBackgroundColor=none;edgeStyle=orthogonalEdgeStyle;entryX=0;entryY=0.5;entryDx=0;entryDy=0;" edge="1" parent="WIyWlLk6GJQsqaUBKTNV-1" source="WIyWlLk6GJQsqaUBKTNV-6" target="DtrRunPUtBe-wTyn-rRX-1">
          <mxGeometry y="20" relative="1" as="geometry">
            <mxPoint as="offset" />
            <mxPoint x="370" y="245" as="targetPoint" />
          </mxGeometry>
        </mxCell>
        <mxCell id="WIyWlLk6GJQsqaUBKTNV-5" value="No" style="edgeStyle=orthogonalEdgeStyle;rounded=0;html=1;jettySize=auto;orthogonalLoop=1;fontSize=11;endArrow=block;endFill=0;endSize=8;strokeWidth=1;shadow=0;labelBackgroundColor=none;" edge="1" parent="WIyWlLk6GJQsqaUBKTNV-1" source="WIyWlLk6GJQsqaUBKTNV-6" target="DtrRunPUtBe-wTyn-rRX-2">
          <mxGeometry x="-0.2" y="10" relative="1" as="geometry">
            <mxPoint as="offset" />
            <mxPoint x="220" y="360" as="targetPoint" />
          </mxGeometry>
        </mxCell>
        <mxCell id="WIyWlLk6GJQsqaUBKTNV-6" value="¿Le alcanza el muro&amp;nbsp;&lt;div&gt;de la perdición?&lt;/div&gt;" style="rhombus;whiteSpace=wrap;html=1;shadow=0;fontFamily=Helvetica;fontSize=12;align=center;strokeWidth=1;spacing=6;spacingTop=-4;" vertex="1" parent="WIyWlLk6GJQsqaUBKTNV-1">
          <mxGeometry x="130" y="190" width="180" height="110" as="geometry" />
        </mxCell>
        <mxCell id="DtrRunPUtBe-wTyn-rRX-1" value="GAME OVER" style="rounded=0;whiteSpace=wrap;html=1;" vertex="1" parent="WIyWlLk6GJQsqaUBKTNV-1">
          <mxGeometry x="370" y="215" width="120" height="60" as="geometry" />
        </mxCell>
        <mxCell id="DtrRunPUtBe-wTyn-rRX-4" value="" style="edgeStyle=orthogonalEdgeStyle;rounded=0;orthogonalLoop=1;jettySize=auto;html=1;" edge="1" parent="WIyWlLk6GJQsqaUBKTNV-1" source="DtrRunPUtBe-wTyn-rRX-2" target="DtrRunPUtBe-wTyn-rRX-3">
          <mxGeometry relative="1" as="geometry" />
        </mxCell>
        <mxCell id="czq9bfmuFlDPtD6XQa7p-16" value="" style="edgeStyle=orthogonalEdgeStyle;rounded=0;orthogonalLoop=1;jettySize=auto;html=1;" edge="1" parent="WIyWlLk6GJQsqaUBKTNV-1" source="DtrRunPUtBe-wTyn-rRX-2" target="czq9bfmuFlDPtD6XQa7p-15">
          <mxGeometry relative="1" as="geometry" />
        </mxCell>
        <mxCell id="DtrRunPUtBe-wTyn-rRX-2" value="¿Toca algún obstáculo?" style="rhombus;whiteSpace=wrap;html=1;" vertex="1" parent="WIyWlLk6GJQsqaUBKTNV-1">
          <mxGeometry x="162.5" y="350" width="115" height="100" as="geometry" />
        </mxCell>
        <mxCell id="DtrRunPUtBe-wTyn-rRX-5" style="edgeStyle=orthogonalEdgeStyle;rounded=0;orthogonalLoop=1;jettySize=auto;html=1;exitX=1;exitY=0.5;exitDx=0;exitDy=0;entryX=1;entryY=0.5;entryDx=0;entryDy=0;" edge="1" parent="WIyWlLk6GJQsqaUBKTNV-1" source="DtrRunPUtBe-wTyn-rRX-3" target="DtrRunPUtBe-wTyn-rRX-1">
          <mxGeometry relative="1" as="geometry" />
        </mxCell>
        <mxCell id="DtrRunPUtBe-wTyn-rRX-7" style="edgeStyle=orthogonalEdgeStyle;rounded=0;orthogonalLoop=1;jettySize=auto;html=1;exitX=0.5;exitY=1;exitDx=0;exitDy=0;entryX=0.5;entryY=1;entryDx=0;entryDy=0;" edge="1" parent="WIyWlLk6GJQsqaUBKTNV-1" source="DtrRunPUtBe-wTyn-rRX-3" target="DtrRunPUtBe-wTyn-rRX-2">
          <mxGeometry relative="1" as="geometry" />
        </mxCell>
        <mxCell id="DtrRunPUtBe-wTyn-rRX-3" value="Velocidad &amp;lt; muro de la perdición" style="rhombus;whiteSpace=wrap;html=1;" vertex="1" parent="WIyWlLk6GJQsqaUBKTNV-1">
          <mxGeometry x="350" y="335" width="155" height="130" as="geometry" />
        </mxCell>
        <mxCell id="DtrRunPUtBe-wTyn-rRX-6" value="si" style="text;html=1;whiteSpace=wrap;strokeColor=none;fillColor=none;align=center;verticalAlign=middle;rounded=0;" vertex="1" parent="WIyWlLk6GJQsqaUBKTNV-1">
          <mxGeometry x="505" y="320" width="60" height="30" as="geometry" />
        </mxCell>
        <mxCell id="DtrRunPUtBe-wTyn-rRX-8" value="no" style="text;html=1;whiteSpace=wrap;strokeColor=none;fillColor=none;align=center;verticalAlign=middle;rounded=0;" vertex="1" parent="WIyWlLk6GJQsqaUBKTNV-1">
          <mxGeometry x="290" y="460" width="60" height="30" as="geometry" />
        </mxCell>
        <mxCell id="DtrRunPUtBe-wTyn-rRX-12" style="edgeStyle=orthogonalEdgeStyle;rounded=0;orthogonalLoop=1;jettySize=auto;html=1;exitX=0.5;exitY=1;exitDx=0;exitDy=0;entryX=0.5;entryY=0;entryDx=0;entryDy=0;" edge="1" parent="WIyWlLk6GJQsqaUBKTNV-1" source="DtrRunPUtBe-wTyn-rRX-10" target="DtrRunPUtBe-wTyn-rRX-11">
          <mxGeometry relative="1" as="geometry" />
        </mxCell>
        <mxCell id="DtrRunPUtBe-wTyn-rRX-10" value="¡Corre Gijonido!" style="rounded=1;whiteSpace=wrap;html=1;" vertex="1" parent="WIyWlLk6GJQsqaUBKTNV-1">
          <mxGeometry x="170" y="680" width="120" height="40" as="geometry" />
        </mxCell>
        <mxCell id="DtrRunPUtBe-wTyn-rRX-14" value="" style="edgeStyle=orthogonalEdgeStyle;rounded=0;orthogonalLoop=1;jettySize=auto;html=1;" edge="1" parent="WIyWlLk6GJQsqaUBKTNV-1" source="DtrRunPUtBe-wTyn-rRX-11" target="DtrRunPUtBe-wTyn-rRX-13">
          <mxGeometry relative="1" as="geometry" />
        </mxCell>
        <mxCell id="DtrRunPUtBe-wTyn-rRX-18" value="" style="edgeStyle=orthogonalEdgeStyle;rounded=0;orthogonalLoop=1;jettySize=auto;html=1;" edge="1" parent="WIyWlLk6GJQsqaUBKTNV-1" source="DtrRunPUtBe-wTyn-rRX-11">
          <mxGeometry relative="1" as="geometry">
            <mxPoint x="370" y="800" as="targetPoint" />
          </mxGeometry>
        </mxCell>
        <mxCell id="DtrRunPUtBe-wTyn-rRX-11" value="¿Toca algún premio?" style="rhombus;whiteSpace=wrap;html=1;shadow=0;fontFamily=Helvetica;fontSize=12;align=center;strokeWidth=1;spacing=6;spacingTop=-4;" vertex="1" parent="WIyWlLk6GJQsqaUBKTNV-1">
          <mxGeometry x="160" y="760" width="140" height="80" as="geometry" />
        </mxCell>
        <mxCell id="DtrRunPUtBe-wTyn-rRX-15" style="edgeStyle=orthogonalEdgeStyle;rounded=0;orthogonalLoop=1;jettySize=auto;html=1;exitX=0;exitY=0.5;exitDx=0;exitDy=0;entryX=0;entryY=0.5;entryDx=0;entryDy=0;" edge="1" parent="WIyWlLk6GJQsqaUBKTNV-1" source="DtrRunPUtBe-wTyn-rRX-13" target="DtrRunPUtBe-wTyn-rRX-11">
          <mxGeometry relative="1" as="geometry" />
        </mxCell>
        <mxCell id="DtrRunPUtBe-wTyn-rRX-13" value="Sigue corriendo" style="whiteSpace=wrap;html=1;shadow=0;strokeWidth=1;spacing=6;spacingTop=-4;" vertex="1" parent="WIyWlLk6GJQsqaUBKTNV-1">
          <mxGeometry x="170" y="1120" width="120" height="60" as="geometry" />
        </mxCell>
        <mxCell id="DtrRunPUtBe-wTyn-rRX-16" value="no" style="text;html=1;whiteSpace=wrap;strokeColor=none;fillColor=none;align=center;verticalAlign=middle;rounded=0;" vertex="1" parent="WIyWlLk6GJQsqaUBKTNV-1">
          <mxGeometry x="220" y="850" width="60" height="30" as="geometry" />
        </mxCell>
        <mxCell id="DtrRunPUtBe-wTyn-rRX-20" value="" style="edgeStyle=orthogonalEdgeStyle;rounded=0;orthogonalLoop=1;jettySize=auto;html=1;" edge="1" parent="WIyWlLk6GJQsqaUBKTNV-1" target="DtrRunPUtBe-wTyn-rRX-19">
          <mxGeometry relative="1" as="geometry">
            <mxPoint x="440" y="800" as="sourcePoint" />
          </mxGeometry>
        </mxCell>
        <mxCell id="DtrRunPUtBe-wTyn-rRX-24" value="" style="edgeStyle=orthogonalEdgeStyle;rounded=0;orthogonalLoop=1;jettySize=auto;html=1;" edge="1" parent="WIyWlLk6GJQsqaUBKTNV-1">
          <mxGeometry relative="1" as="geometry">
            <mxPoint x="405" y="820" as="sourcePoint" />
            <mxPoint x="405" y="880" as="targetPoint" />
          </mxGeometry>
        </mxCell>
        <mxCell id="rZbeJk0Zc37nl2DUod1e-0" style="edgeStyle=orthogonalEdgeStyle;rounded=0;orthogonalLoop=1;jettySize=auto;html=1;exitX=1;exitY=0.5;exitDx=0;exitDy=0;" edge="1" parent="WIyWlLk6GJQsqaUBKTNV-1" source="DtrRunPUtBe-wTyn-rRX-19">
          <mxGeometry relative="1" as="geometry">
            <mxPoint x="230" y="1100" as="targetPoint" />
            <Array as="points">
              <mxPoint x="680" y="800" />
              <mxPoint x="680" y="1100" />
            </Array>
            <mxPoint x="570" y="810" as="sourcePoint" />
          </mxGeometry>
        </mxCell>
        <mxCell id="DtrRunPUtBe-wTyn-rRX-19" value="+10" style="whiteSpace=wrap;html=1;shadow=0;strokeWidth=1;spacing=6;spacingTop=-4;" vertex="1" parent="WIyWlLk6GJQsqaUBKTNV-1">
          <mxGeometry x="527.5" y="780" width="65" height="40" as="geometry" />
        </mxCell>
        <mxCell id="DtrRunPUtBe-wTyn-rRX-21" value="si" style="text;html=1;whiteSpace=wrap;strokeColor=none;fillColor=none;align=center;verticalAlign=middle;rounded=0;" vertex="1" parent="WIyWlLk6GJQsqaUBKTNV-1">
          <mxGeometry x="440" y="770" width="60" height="30" as="geometry" />
        </mxCell>
        <mxCell id="DtrRunPUtBe-wTyn-rRX-30" value="" style="edgeStyle=orthogonalEdgeStyle;rounded=0;orthogonalLoop=1;jettySize=auto;html=1;" edge="1" parent="WIyWlLk6GJQsqaUBKTNV-1" target="DtrRunPUtBe-wTyn-rRX-28">
          <mxGeometry relative="1" as="geometry">
            <mxPoint x="440" y="900" as="sourcePoint" />
          </mxGeometry>
        </mxCell>
        <mxCell id="DtrRunPUtBe-wTyn-rRX-34" value="" style="edgeStyle=orthogonalEdgeStyle;rounded=0;orthogonalLoop=1;jettySize=auto;html=1;" edge="1" parent="WIyWlLk6GJQsqaUBKTNV-1">
          <mxGeometry relative="1" as="geometry">
            <mxPoint x="405" y="920" as="sourcePoint" />
            <mxPoint x="405" y="970" as="targetPoint" />
          </mxGeometry>
        </mxCell>
        <mxCell id="DtrRunPUtBe-wTyn-rRX-25" value="no" style="text;html=1;whiteSpace=wrap;strokeColor=none;fillColor=none;align=center;verticalAlign=middle;rounded=0;" vertex="1" parent="WIyWlLk6GJQsqaUBKTNV-1">
          <mxGeometry x="390" y="830" width="60" height="30" as="geometry" />
        </mxCell>
        <mxCell id="DtrRunPUtBe-wTyn-rRX-36" style="edgeStyle=orthogonalEdgeStyle;rounded=0;orthogonalLoop=1;jettySize=auto;html=1;exitX=1;exitY=0.5;exitDx=0;exitDy=0;" edge="1" parent="WIyWlLk6GJQsqaUBKTNV-1" source="DtrRunPUtBe-wTyn-rRX-28">
          <mxGeometry relative="1" as="geometry">
            <mxPoint x="680" y="900" as="targetPoint" />
          </mxGeometry>
        </mxCell>
        <mxCell id="DtrRunPUtBe-wTyn-rRX-28" value="+20" style="whiteSpace=wrap;html=1;shadow=0;strokeWidth=1;spacing=6;spacingTop=-4;" vertex="1" parent="WIyWlLk6GJQsqaUBKTNV-1">
          <mxGeometry x="527.5" y="880" width="65" height="40" as="geometry" />
        </mxCell>
        <mxCell id="DtrRunPUtBe-wTyn-rRX-31" value="si" style="text;html=1;whiteSpace=wrap;strokeColor=none;fillColor=none;align=center;verticalAlign=middle;rounded=0;" vertex="1" parent="WIyWlLk6GJQsqaUBKTNV-1">
          <mxGeometry x="440" y="870" width="60" height="30" as="geometry" />
        </mxCell>
        <mxCell id="DtrRunPUtBe-wTyn-rRX-35" value="no" style="text;html=1;whiteSpace=wrap;strokeColor=none;fillColor=none;align=center;verticalAlign=middle;rounded=0;" vertex="1" parent="WIyWlLk6GJQsqaUBKTNV-1">
          <mxGeometry x="390" y="930" width="60" height="30" as="geometry" />
        </mxCell>
        <mxCell id="DtrRunPUtBe-wTyn-rRX-40" style="edgeStyle=orthogonalEdgeStyle;rounded=0;orthogonalLoop=1;jettySize=auto;html=1;exitX=1;exitY=0.5;exitDx=0;exitDy=0;" edge="1" parent="WIyWlLk6GJQsqaUBKTNV-1" source="DtrRunPUtBe-wTyn-rRX-37">
          <mxGeometry relative="1" as="geometry">
            <mxPoint x="680" y="995" as="targetPoint" />
          </mxGeometry>
        </mxCell>
        <mxCell id="DtrRunPUtBe-wTyn-rRX-37" value="+50" style="whiteSpace=wrap;html=1;shadow=0;strokeWidth=1;spacing=6;spacingTop=-4;" vertex="1" parent="WIyWlLk6GJQsqaUBKTNV-1">
          <mxGeometry x="530" y="977.5" width="60" height="35" as="geometry" />
        </mxCell>
        <mxCell id="DtrRunPUtBe-wTyn-rRX-39" value="si" style="text;html=1;whiteSpace=wrap;strokeColor=none;fillColor=none;align=center;verticalAlign=middle;rounded=0;" vertex="1" parent="WIyWlLk6GJQsqaUBKTNV-1">
          <mxGeometry x="460" y="930" width="60" height="30" as="geometry" />
        </mxCell>
        <mxCell id="DtrRunPUtBe-wTyn-rRX-44" value="" style="edgeStyle=orthogonalEdgeStyle;rounded=0;orthogonalLoop=1;jettySize=auto;html=1;exitX=1;exitY=0.5;exitDx=0;exitDy=0;" edge="1" parent="WIyWlLk6GJQsqaUBKTNV-1" source="czq9bfmuFlDPtD6XQa7p-10" target="DtrRunPUtBe-wTyn-rRX-43">
          <mxGeometry relative="1" as="geometry">
            <mxPoint x="455" y="1045" as="sourcePoint" />
          </mxGeometry>
        </mxCell>
        <mxCell id="czq9bfmuFlDPtD6XQa7p-13" style="edgeStyle=orthogonalEdgeStyle;rounded=0;orthogonalLoop=1;jettySize=auto;html=1;" edge="1" parent="WIyWlLk6GJQsqaUBKTNV-1" source="DtrRunPUtBe-wTyn-rRX-43">
          <mxGeometry relative="1" as="geometry">
            <mxPoint x="680" y="1065" as="targetPoint" />
          </mxGeometry>
        </mxCell>
        <mxCell id="DtrRunPUtBe-wTyn-rRX-43" value="+100" style="whiteSpace=wrap;html=1;" vertex="1" parent="WIyWlLk6GJQsqaUBKTNV-1">
          <mxGeometry x="530" y="1050" width="60" height="30" as="geometry" />
        </mxCell>
        <mxCell id="DtrRunPUtBe-wTyn-rRX-46" value="si" style="text;html=1;whiteSpace=wrap;strokeColor=none;fillColor=none;align=center;verticalAlign=middle;rounded=0;" vertex="1" parent="WIyWlLk6GJQsqaUBKTNV-1">
          <mxGeometry x="460" y="1030" width="60" height="30" as="geometry" />
        </mxCell>
        <mxCell id="DtrRunPUtBe-wTyn-rRX-47" value="Puntos" style="shape=callout;whiteSpace=wrap;html=1;perimeter=calloutPerimeter;" vertex="1" parent="WIyWlLk6GJQsqaUBKTNV-1">
          <mxGeometry x="260" y="625" width="75" height="55" as="geometry" />
        </mxCell>
        <mxCell id="DtrRunPUtBe-wTyn-rRX-49" value="GAME OVER" style="shape=callout;whiteSpace=wrap;html=1;perimeter=calloutPerimeter;" vertex="1" parent="WIyWlLk6GJQsqaUBKTNV-1">
          <mxGeometry x="237.5" y="20" width="97.5" height="60" as="geometry" />
        </mxCell>
        <mxCell id="DtrRunPUtBe-wTyn-rRX-50" value="si" style="text;html=1;whiteSpace=wrap;strokeColor=none;fillColor=none;align=center;verticalAlign=middle;rounded=0;" vertex="1" parent="WIyWlLk6GJQsqaUBKTNV-1">
          <mxGeometry x="300" y="770" width="60" height="30" as="geometry" />
        </mxCell>
        <mxCell id="czq9bfmuFlDPtD6XQa7p-1" value="&lt;span style=&quot;color: rgb(237, 237, 237); font-family: Arial, sans-serif; font-size: 14.6667px; white-space-collapse: preserve;&quot;&gt;🍎? &lt;/span&gt;" style="rhombus;whiteSpace=wrap;html=1;" vertex="1" parent="WIyWlLk6GJQsqaUBKTNV-1">
          <mxGeometry x="370" y="770" width="70" height="60" as="geometry" />
        </mxCell>
        <mxCell id="czq9bfmuFlDPtD6XQa7p-2" value="&lt;span style=&quot;color: rgb(237, 237, 237); font-family: Arial, sans-serif; font-size: 14.6667px; white-space-collapse: preserve;&quot;&gt;🍏 &lt;/span&gt;" style="rhombus;whiteSpace=wrap;html=1;" vertex="1" parent="WIyWlLk6GJQsqaUBKTNV-1">
          <mxGeometry x="370" y="875" width="70" height="55" as="geometry" />
        </mxCell>
        <mxCell id="czq9bfmuFlDPtD6XQa7p-9" style="edgeStyle=orthogonalEdgeStyle;rounded=0;orthogonalLoop=1;jettySize=auto;html=1;exitX=1;exitY=0.5;exitDx=0;exitDy=0;" edge="1" parent="WIyWlLk6GJQsqaUBKTNV-1" source="czq9bfmuFlDPtD6XQa7p-3" target="DtrRunPUtBe-wTyn-rRX-37">
          <mxGeometry relative="1" as="geometry" />
        </mxCell>
        <mxCell id="czq9bfmuFlDPtD6XQa7p-11" style="edgeStyle=orthogonalEdgeStyle;rounded=0;orthogonalLoop=1;jettySize=auto;html=1;exitX=0.5;exitY=1;exitDx=0;exitDy=0;entryX=0.5;entryY=0;entryDx=0;entryDy=0;" edge="1" parent="WIyWlLk6GJQsqaUBKTNV-1" source="czq9bfmuFlDPtD6XQa7p-3" target="czq9bfmuFlDPtD6XQa7p-10">
          <mxGeometry relative="1" as="geometry" />
        </mxCell>
        <mxCell id="czq9bfmuFlDPtD6XQa7p-3" value="minicachopo?" style="rhombus;whiteSpace=wrap;html=1;" vertex="1" parent="WIyWlLk6GJQsqaUBKTNV-1">
          <mxGeometry x="340" y="970" width="130" height="50" as="geometry" />
        </mxCell>
        <mxCell id="czq9bfmuFlDPtD6XQa7p-10" value="Billete Jovellanos?" style="rhombus;whiteSpace=wrap;html=1;" vertex="1" parent="WIyWlLk6GJQsqaUBKTNV-1">
          <mxGeometry x="315" y="1040" width="180" height="50" as="geometry" />
        </mxCell>
        <mxCell id="czq9bfmuFlDPtD6XQa7p-12" value="no" style="text;html=1;whiteSpace=wrap;strokeColor=none;fillColor=none;align=center;verticalAlign=middle;rounded=0;" vertex="1" parent="WIyWlLk6GJQsqaUBKTNV-1">
          <mxGeometry x="390" y="1020" width="60" height="30" as="geometry" />
        </mxCell>
        <mxCell id="czq9bfmuFlDPtD6XQa7p-14" value="si" style="text;html=1;whiteSpace=wrap;strokeColor=none;fillColor=none;align=center;verticalAlign=middle;rounded=0;" vertex="1" parent="WIyWlLk6GJQsqaUBKTNV-1">
          <mxGeometry x="275" y="370" width="60" height="30" as="geometry" />
        </mxCell>
        <mxCell id="czq9bfmuFlDPtD6XQa7p-18" style="edgeStyle=orthogonalEdgeStyle;rounded=0;orthogonalLoop=1;jettySize=auto;html=1;entryX=0;entryY=0.5;entryDx=0;entryDy=0;" edge="1" parent="WIyWlLk6GJQsqaUBKTNV-1" source="czq9bfmuFlDPtD6XQa7p-15" target="WIyWlLk6GJQsqaUBKTNV-6">
          <mxGeometry relative="1" as="geometry" />
        </mxCell>
        <mxCell id="czq9bfmuFlDPtD6XQa7p-15" value="Sigue corriendo" style="whiteSpace=wrap;html=1;shadow=0;strokeWidth=1;spacing=6;spacingTop=-4;" vertex="1" parent="WIyWlLk6GJQsqaUBKTNV-1">
          <mxGeometry x="10" y="370" width="120" height="60" as="geometry" />
        </mxCell>
        <mxCell id="czq9bfmuFlDPtD6XQa7p-17" value="no" style="text;html=1;whiteSpace=wrap;strokeColor=none;fillColor=none;align=center;verticalAlign=middle;rounded=0;" vertex="1" parent="WIyWlLk6GJQsqaUBKTNV-1">
          <mxGeometry x="120" y="370" width="60" height="30" as="geometry" />
        </mxCell>
      </root>
    </mxGraphModel>
  </diagram>
  <diagram id="or1K8dbpKgOC2mFDTqj_" name="Page-2">
    <mxGraphModel grid="1" page="1" gridSize="10" guides="1" tooltips="1" connect="1" arrows="1" fold="1" pageScale="1" pageWidth="850" pageHeight="1100" math="0" shadow="0">
      <root>
        <mxCell id="0" />
        <mxCell id="1" parent="0" />
      </root>
    </mxGraphModel>
  </diagram>
</mxfile>
